<svg width="18" height="15" viewBox="0 0 18 15" fill="none" xmlns="http://www.w3.org/2000/svg">
<path opacity="0.75" fill-rule="evenodd" clip-rule="evenodd" d="M11.9419 0.0251838C11.1138 0.158815 10.406 0.520999 9.84377 1.09894C9.5076 1.4445 9.28946 1.76351 9.08673 2.20588C8.84333 2.73717 8.7808 3.03932 8.77623 3.70578C8.77409 4.02386 8.78641 4.36869 8.8036 4.47206L8.83489 4.66001L8.53973 4.63345C6.48928 4.44885 4.68831 3.75097 3.04259 2.50333C2.70179 2.24494 2.3427 1.9168 1.86348 1.4258L1.17437 0.719788L1.10037 0.844088C0.97899 1.04797 0.802989 1.58754 0.742865 1.94016C0.503499 3.3441 1.03565 4.72101 2.17153 5.63669L2.31824 5.75493L2.02074 5.72239C1.65483 5.68233 1.36088 5.60125 0.975409 5.434C0.812903 5.36349 0.67064 5.30581 0.659219 5.30581C0.621825 5.30581 0.688433 5.89697 0.761298 6.21185C0.978688 7.15143 1.55121 7.97642 2.35488 8.50825C2.68234 8.72493 3.15274 8.94284 3.40402 8.99427C3.59872 9.0341 3.55955 9.07581 3.2826 9.12358C2.97862 9.17606 2.37105 9.18639 2.12467 9.14332C1.96544 9.11549 1.96141 9.1173 1.98557 9.20544C2.04423 9.41961 2.32529 9.95016 2.5276 10.2287C3.14166 11.0742 4.1093 11.633 5.12708 11.7297C5.27522 11.7438 5.38741 11.7703 5.37632 11.7886C5.32408 11.8751 4.50205 12.3927 4.09807 12.5935C2.97651 13.1509 1.92051 13.3843 0.638335 13.3581C0.27299 13.3506 -0.0139857 13.3557 0.000527105 13.3695C0.0150776 13.3832 0.179619 13.484 0.366211 13.5934C1.34539 14.1678 2.37994 14.5679 3.49494 14.8036C4.31203 14.9763 4.60609 15.0025 5.70013 14.9998C6.89131 14.9968 7.40227 14.9354 8.39133 14.6763C11.2593 13.9252 13.5859 11.9965 14.9716 9.22155C15.7216 7.71973 16.1136 6.16142 16.1676 4.46709L16.1912 3.72475L16.5152 3.4598C16.9216 3.12746 17.4073 2.6131 17.7361 2.16702C17.8754 1.9781 17.9841 1.81814 17.9777 1.81158C17.9713 1.80503 17.8371 1.85087 17.6795 1.91345C17.2892 2.06847 16.6441 2.24772 16.2455 2.31187C16.0641 2.34106 15.9156 2.36099 15.9156 2.35613C15.9156 2.35131 15.9877 2.29888 16.0758 2.23966C16.5588 1.91503 17.0195 1.3746 17.2888 0.81683C17.565 0.244754 17.5792 0.258248 17.0016 0.542975C16.4495 0.815134 15.9023 1.01978 15.4545 1.12161L15.163 1.18788L14.8969 0.93955C14.4789 0.549298 13.9383 0.259983 13.3237 0.0975899C12.9855 0.00821976 12.2772 -0.0289086 11.9419 0.0251838Z" fill="#26323C"/>
</svg>
