<svg width="19" height="23" viewBox="0 0 19 23" fill="none" xmlns="http://www.w3.org/2000/svg">
<path fill-rule="evenodd" clip-rule="evenodd" d="M0 9.58017C0 16.3379 7.98131 22.8 9.49938 22.8C11.0175 22.8 19 16.3379 19 9.58017C19 4.28974 14.7464 0 9.49938 0C4.25233 0 0 4.28974 0 9.58017ZM9.50064 5.58333C7.33682 5.58333 5.58333 7.33682 5.58333 9.50064C5.58333 11.6634 7.33702 13.4167 9.50064 13.4167C11.6632 13.4167 13.4167 11.6632 13.4167 9.50064C13.4167 7.33702 11.6634 5.58333 9.50064 5.58333ZM7.08333 9.50064C7.08333 8.16525 8.16525 7.08333 9.50064 7.08333C10.8346 7.08333 11.9167 8.16505 11.9167 9.50064C11.9167 10.8348 10.8348 11.9167 9.50064 11.9167C8.16505 11.9167 7.08333 10.8346 7.08333 9.50064Z" fill="white"/>
</svg>
