<svg width="7" height="8" viewBox="0 0 7 8" fill="none" xmlns="http://www.w3.org/2000/svg">
<path d="M5.808 2.128C5.648 1.88267 5.408 1.68 5.088 1.52C4.768 1.34933 4.42667 1.264 4.064 1.264C3.66933 1.264 3.31733 1.33867 3.008 1.488C2.70933 1.63733 2.45333 1.84 2.24 2.096C2.02667 2.34133 1.86133 2.62933 1.744 2.96C1.63733 3.29067 1.584 3.63733 1.584 4C1.584 4.36267 1.63733 4.70933 1.744 5.04C1.86133 5.37067 2.02667 5.664 2.24 5.92C2.45333 6.16533 2.71467 6.36267 3.024 6.512C3.33333 6.66133 3.68533 6.736 4.08 6.736C4.464 6.736 4.81067 6.66133 5.12 6.512C5.44 6.36267 5.70133 6.16 5.904 5.904L6.912 6.816C6.592 7.18933 6.192 7.48267 5.712 7.696C5.232 7.89867 4.688 8 4.08 8C3.49333 8 2.94933 7.904 2.448 7.712C1.95733 7.52 1.53067 7.25333 1.168 6.912C0.805333 6.56 0.517333 6.13867 0.304 5.648C0.101333 5.15733 0 4.608 0 4C0 3.40267 0.101333 2.85867 0.304 2.368C0.506667 1.87733 0.789333 1.456 1.152 1.104C1.51467 0.752 1.94133 0.48 2.432 0.288C2.93333 0.096 3.472 0 4.048 0C4.58133 0 5.10933 0.106666 5.632 0.32C6.16533 0.533333 6.58667 0.842666 6.896 1.248L5.808 2.128Z" fill="#384089"/>
</svg>
