<svg width="17" height="17" viewBox="0 0 17 17" fill="none" xmlns="http://www.w3.org/2000/svg">
<path opacity="0.75" fill-rule="evenodd" clip-rule="evenodd" d="M1.38846 0.0968232C0.398651 0.446137 -0.19196 1.50474 0.0568258 2.48355C0.236248 3.1894 0.715893 3.72226 1.38404 3.95803C1.75612 4.08931 2.32759 4.08931 2.69967 3.95803C3.66868 3.61609 4.23331 2.63884 4.04659 1.62675C4.02594 1.51473 3.9416 1.2869 3.85922 1.12048C3.61842 0.634145 3.21812 0.281314 2.69967 0.0983361C2.32971 -0.0321838 1.75589 -0.0328646 1.38846 0.0968232ZM12.2179 5.37722C11.1726 5.50839 10.1331 6.11606 9.64385 6.88204C9.55025 7.02856 9.46125 7.14947 9.44609 7.15068C9.43092 7.15193 9.4139 6.80825 9.40827 6.38704L9.39802 5.62117H7.71499H6.03196V11.2943V16.9674H7.79063H9.5493L9.56942 13.6203C9.58928 10.3176 9.59068 10.2692 9.67279 9.97655C9.85951 9.31113 10.1496 8.90765 10.6023 8.68394C11.4876 8.24639 12.6345 8.43561 13.0681 9.09074C13.2022 9.29343 13.331 9.64573 13.4118 10.0307C13.4716 10.3157 13.4807 10.6927 13.4995 13.6581L13.5205 16.9674H15.2603H17V13.3177C17 10.5579 16.988 9.56657 16.9508 9.25197C16.6731 6.90629 15.7789 5.79428 13.8798 5.43267C13.49 5.35843 12.6033 5.32885 12.2179 5.37722ZM0.281898 5.64916C0.271913 5.67537 0.268131 8.2327 0.273464 11.3321L0.283184 16.9674H2.04186H3.80053V11.2943V5.62117L2.05025 5.61134C0.670205 5.60358 0.296194 5.61156 0.281898 5.64916Z" fill="#26323C"/>
</svg>
