<svg width="1170" height="286" viewBox="0 0 1170 286" fill="none" xmlns="http://www.w3.org/2000/svg">
<mask id="mask0_1_641" style="mask-type:alpha" maskUnits="userSpaceOnUse" x="30" y="20" width="1110" height="226">
<rect width="1110" height="226" rx="20" transform="matrix(1 0 0 -1 30 246)" fill="#3767B1"/>
</mask>
<g mask="url(#mask0_1_641)">
<g opacity="0.1">
<circle cx="1031.5" cy="106.5" r="2.5" fill="#C4C4C4"/>
<circle cx="1042.75" cy="106.5" r="2.5" fill="#C4C4C4"/>
<circle cx="1076.5" cy="106.5" r="2.5" fill="#C4C4C4"/>
<circle cx="1054" cy="106.5" r="2.5" fill="#C4C4C4"/>
<circle cx="1087.75" cy="106.5" r="2.5" fill="#C4C4C4"/>
<circle cx="1121.5" cy="106.5" r="2.5" fill="#C4C4C4"/>
<circle cx="1065.25" cy="106.5" r="2.5" fill="#C4C4C4"/>
<circle cx="1099" cy="106.5" r="2.5" fill="#C4C4C4"/>
<circle cx="1110.25" cy="106.5" r="2.5" fill="#C4C4C4"/>
<circle cx="1031.5" cy="174.5" r="2.5" fill="#C4C4C4"/>
<circle cx="1042.75" cy="174.5" r="2.5" fill="#C4C4C4"/>
<circle cx="1076.5" cy="174.5" r="2.5" fill="#C4C4C4"/>
<circle cx="1054" cy="174.5" r="2.5" fill="#C4C4C4"/>
<circle cx="1087.75" cy="174.5" r="2.5" fill="#C4C4C4"/>
<circle cx="1121.5" cy="174.5" r="2.5" fill="#C4C4C4"/>
<circle cx="1065.25" cy="174.5" r="2.5" fill="#C4C4C4"/>
<circle cx="1099" cy="174.5" r="2.5" fill="#C4C4C4"/>
<circle cx="1110.25" cy="174.5" r="2.5" fill="#C4C4C4"/>
<circle cx="1031.5" cy="140.5" r="2.5" fill="#C4C4C4"/>
<circle cx="1042.75" cy="140.5" r="2.5" fill="#C4C4C4"/>
<circle cx="1076.5" cy="140.5" r="2.5" fill="#C4C4C4"/>
<circle cx="1054" cy="140.5" r="2.5" fill="#C4C4C4"/>
<circle cx="1087.75" cy="140.5" r="2.5" fill="#C4C4C4"/>
<circle cx="1121.5" cy="140.5" r="2.5" fill="#C4C4C4"/>
<circle cx="1065.25" cy="140.5" r="2.5" fill="#C4C4C4"/>
<circle cx="1099" cy="140.5" r="2.5" fill="#C4C4C4"/>
<circle cx="1110.25" cy="140.5" r="2.5" fill="#C4C4C4"/>
<circle cx="1031.5" cy="123.5" r="2.5" fill="#C4C4C4"/>
<circle cx="1042.75" cy="123.5" r="2.5" fill="#C4C4C4"/>
<circle cx="1076.5" cy="123.5" r="2.5" fill="#C4C4C4"/>
<circle cx="1054" cy="123.5" r="2.5" fill="#C4C4C4"/>
<circle cx="1087.75" cy="123.5" r="2.5" fill="#C4C4C4"/>
<circle cx="1121.5" cy="123.5" r="2.5" fill="#C4C4C4"/>
<circle cx="1065.25" cy="123.5" r="2.5" fill="#C4C4C4"/>
<circle cx="1099" cy="123.5" r="2.5" fill="#C4C4C4"/>
<circle cx="1110.25" cy="123.5" r="2.5" fill="#C4C4C4"/>
<circle cx="1031.5" cy="157.5" r="2.5" fill="#C4C4C4"/>
<circle cx="1042.75" cy="157.5" r="2.5" fill="#C4C4C4"/>
<circle cx="1076.5" cy="157.5" r="2.5" fill="#C4C4C4"/>
<circle cx="1054" cy="157.5" r="2.5" fill="#C4C4C4"/>
<circle cx="1087.75" cy="157.5" r="2.5" fill="#C4C4C4"/>
<circle cx="1121.5" cy="157.5" r="2.5" fill="#C4C4C4"/>
<circle cx="1065.25" cy="157.5" r="2.5" fill="#C4C4C4"/>
<circle cx="1099" cy="157.5" r="2.5" fill="#C4C4C4"/>
<circle cx="1110.25" cy="157.5" r="2.5" fill="#C4C4C4"/>
</g>
<g opacity="0.1">
<circle cx="47.5" cy="70.5" r="2.5" fill="#C4C4C4"/>
<circle cx="58.75" cy="70.5" r="2.5" fill="#C4C4C4"/>
<circle cx="92.5" cy="70.5" r="2.5" fill="#C4C4C4"/>
<circle cx="36.25" cy="70.5" r="2.5" fill="#C4C4C4"/>
<circle cx="70" cy="70.5" r="2.5" fill="#C4C4C4"/>
<circle cx="81.25" cy="70.5" r="2.5" fill="#C4C4C4"/>
<circle cx="47.5" cy="138.5" r="2.5" fill="#C4C4C4"/>
<circle cx="58.75" cy="138.5" r="2.5" fill="#C4C4C4"/>
<circle cx="92.5" cy="138.5" r="2.5" fill="#C4C4C4"/>
<circle cx="36.25" cy="138.5" r="2.5" fill="#C4C4C4"/>
<circle cx="70" cy="138.5" r="2.5" fill="#C4C4C4"/>
<circle cx="81.25" cy="138.5" r="2.5" fill="#C4C4C4"/>
<circle cx="47.5" cy="104.5" r="2.5" fill="#C4C4C4"/>
<circle cx="58.75" cy="104.5" r="2.5" fill="#C4C4C4"/>
<circle cx="92.5" cy="104.5" r="2.5" fill="#C4C4C4"/>
<circle cx="36.25" cy="104.5" r="2.5" fill="#C4C4C4"/>
<circle cx="70" cy="104.5" r="2.5" fill="#C4C4C4"/>
<circle cx="81.25" cy="104.5" r="2.5" fill="#C4C4C4"/>
<circle cx="47.5" cy="87.5" r="2.5" fill="#C4C4C4"/>
<circle cx="58.75" cy="87.5" r="2.5" fill="#C4C4C4"/>
<circle cx="92.5" cy="87.5" r="2.5" fill="#C4C4C4"/>
<circle cx="36.25" cy="87.5" r="2.5" fill="#C4C4C4"/>
<circle cx="70" cy="87.5" r="2.5" fill="#C4C4C4"/>
<circle cx="81.25" cy="87.5" r="2.5" fill="#C4C4C4"/>
<circle cx="47.5" cy="121.5" r="2.5" fill="#C4C4C4"/>
<circle cx="58.75" cy="121.5" r="2.5" fill="#C4C4C4"/>
<circle cx="92.5" cy="121.5" r="2.5" fill="#C4C4C4"/>
<circle cx="36.25" cy="121.5" r="2.5" fill="#C4C4C4"/>
<circle cx="70" cy="121.5" r="2.5" fill="#C4C4C4"/>
<circle cx="81.25" cy="121.5" r="2.5" fill="#C4C4C4"/>
</g>
<path opacity="0.1" d="M31.5 255C127.404 143.219 339.29 2.51445 525.599 231.633C553.74 273.883 581.302 364.417 544.036 404.785C524.856 425.563 481.933 394.124 491.152 312.227C500.37 230.33 531.907 192.865 553.74 129.383C575.573 65.9002 587.366 27.4842 740.198 45.4144C893.03 63.3445 1114.32 178.396 1141 188.088" stroke="#EC5569" stroke-width="3" stroke-linecap="round"/>
<g opacity="0.3">
<circle cx="988.539" cy="91.0005" r="8.5" transform="rotate(180 988.539 91.0005)" fill="#9DB3FC"/>
<g filter="url(#filter0_d_1_641)">
<circle cx="1109.54" cy="221" r="10.5" transform="rotate(180 1109.54 221)" fill="url(#paint0_linear_1_641)"/>
</g>
<path d="M854.427 155.939L872.659 143.009L874.74 165.263L854.427 155.939ZM873.366 142.508C873.366 142.508 873.365 142.508 873.365 142.509L873.366 142.508L873.076 142.1L873.366 142.508Z" stroke="#F5C47F" stroke-width="2"/>
</g>
</g>
<defs>
<filter id="filter0_d_1_641" x="1089.04" y="210.5" width="41" height="52" filterUnits="userSpaceOnUse" color-interpolation-filters="sRGB">
<feFlood flood-opacity="0" result="BackgroundImageFix"/>
<feColorMatrix in="SourceAlpha" type="matrix" values="0 0 0 0 0 0 0 0 0 0 0 0 0 0 0 0 0 0 127 0" result="hardAlpha"/>
<feOffset dy="21"/>
<feGaussianBlur stdDeviation="5"/>
<feComposite in2="hardAlpha" operator="out"/>
<feColorMatrix type="matrix" values="0 0 0 0 0.0809375 0 0 0 0 0.0822936 0 0 0 0 0.154167 0 0 0 0.05 0"/>
<feBlend mode="normal" in2="BackgroundImageFix" result="effect1_dropShadow_1_641"/>
<feBlend mode="normal" in="SourceGraphic" in2="effect1_dropShadow_1_641" result="shape"/>
</filter>
<linearGradient id="paint0_linear_1_641" x1="1109.54" y1="210.5" x2="1111.54" y2="231.5" gradientUnits="userSpaceOnUse">
<stop stop-color="#FCB95C"/>
<stop offset="1" stop-color="#FF8C2A"/>
</linearGradient>
</defs>
</svg>
