<svg width="49" height="49" viewBox="0 0 49 49" fill="none" xmlns="http://www.w3.org/2000/svg">
<path fill-rule="evenodd" clip-rule="evenodd" d="M22.9649 0.0579312C21.4927 0.265661 20.065 0.758637 18.7302 1.51999C17.7463 2.08129 4.506 12.1871 3.51458 13.1335C2.52001 14.083 1.91914 14.8788 1.3085 16.0554C0.743762 17.1436 0.420861 18.0207 0.178637 19.1251C0.0110539 19.8894 3.49487e-05 20.5247 3.49487e-05 29.4254C3.49487e-05 39.6988 -0.0142417 39.3882 0.534308 41.0819C1.46584 43.9585 3.59574 46.4242 6.34471 47.8086C7.6918 48.4869 9.32643 48.9233 10.6357 48.9539C11.3172 48.9699 11.4518 48.9427 11.8502 48.7086C12.4604 48.3499 12.837 47.6101 12.7691 46.9036C12.715 46.3406 12.3308 45.7238 11.8646 45.4515C11.6987 45.3546 11.1244 45.2101 10.5884 45.1302C7.0665 44.6057 4.57374 42.2686 3.92027 38.8788C3.8096 38.3046 3.78488 36.5838 3.78555 29.4888C3.78594 23.8852 3.82196 20.5809 3.88683 20.1791C4.1279 18.6869 4.88945 17.1787 5.94066 16.1121C6.6475 15.3948 19.4113 5.60887 20.5887 4.88143C21.943 4.04476 23.7488 3.66322 25.3796 3.86922C26.4176 4.0003 27.5855 4.38663 28.3564 4.85383C28.9746 5.22848 42.3794 15.4329 42.8619 15.8961C44.1813 17.1629 45.1669 19.4335 45.1784 21.2331C45.1825 21.8865 45.4213 22.4321 45.8785 22.8336C46.1979 23.114 46.7402 23.34 47.0938 23.34C47.4624 23.34 48.0031 23.1065 48.3406 22.8016C48.9062 22.2906 49.0517 21.8035 48.9749 20.6791C48.7864 17.9212 47.6896 15.4427 45.7818 13.4636C45.0243 12.6778 39.8853 8.67749 31.9763 2.71703C30.1288 1.32472 28.7456 0.639825 26.9724 0.239312C26.0298 0.0264075 23.8782 -0.070942 22.9649 0.0579312ZM38.2787 23.7775C36.5587 24.1469 34.8589 25.4817 34.0757 27.0779C33.6259 27.9947 33.3954 28.936 33.3954 29.8566C33.3954 32.1473 34.7929 34.3958 36.8415 35.401C38.6865 36.3064 40.5538 36.3064 42.3988 35.401C44.0162 34.6074 45.3364 32.9097 45.7046 31.1501C45.9977 29.7489 45.8209 28.4155 45.1646 27.0779C44.371 25.4605 42.6732 24.1404 40.9137 23.7721C40.0866 23.5991 39.1 23.6011 38.2787 23.7775ZM22.9481 24.8315C21.2281 25.2008 19.5283 26.5357 18.7451 28.1319C17.8397 29.9769 17.8397 31.8442 18.7451 33.6892C19.3058 34.832 20.368 35.8943 21.5108 36.455C23.3559 37.3603 25.2231 37.3603 27.0682 36.455C28.6856 35.6614 30.0057 33.9636 30.374 32.2041C30.6671 30.8029 30.4903 29.4695 29.8339 28.1319C29.0404 26.5145 27.3426 25.1943 25.583 24.8261C24.7559 24.6531 23.7693 24.6551 22.9481 24.8315ZM40.8108 27.7873C42.1702 28.584 42.4102 30.4251 41.2994 31.5358C40.3612 32.4742 38.8781 32.4732 37.9387 31.5337C36.7157 30.3106 37.1862 28.2034 38.8179 27.596C39.3749 27.3886 40.2785 27.4753 40.8108 27.7873ZM25.4801 28.8413C26.8396 29.638 27.0796 31.4791 25.9688 32.5898C25.0306 33.5282 23.5475 33.5272 22.608 32.5877C21.385 31.3646 21.8556 29.2574 23.4872 28.65C24.0442 28.4426 24.9479 28.5293 25.4801 28.8413ZM37.216 38.3359C33.0446 39.1232 29.9349 42.6949 29.9029 46.7355C29.8951 47.722 29.9046 47.7708 30.1822 48.1642C30.563 48.704 31.0888 48.9722 31.7632 48.971C32.7544 48.9691 33.5191 48.3272 33.6265 47.407C33.6552 47.161 33.7231 46.658 33.7774 46.2891C34.0747 44.267 35.795 42.5063 37.8412 42.1299C38.5688 41.996 40.2814 41.9952 41.0158 42.1284C42.5093 42.399 44 43.5423 44.6481 44.9138C44.9549 45.563 45.0757 46.0801 45.2305 47.407C45.4227 49.0545 47.6868 49.5632 48.6648 48.1788C49.0495 47.6343 49.1021 46.7442 48.8278 45.4137C48.115 41.9547 45.6814 39.3915 42.2295 38.464C41.2513 38.2011 38.3261 38.1264 37.216 38.3359ZM21.9899 39.6793C18.8554 40.3198 16.4578 42.8205 15.9505 45.9787C15.7877 46.9919 15.8728 47.7116 16.212 48.1916C16.9543 49.2422 18.5919 49.2447 19.3326 48.1964C19.5456 47.895 19.6165 47.6519 19.6934 46.9593C19.8734 45.3374 20.7049 44.1882 22.104 43.628C22.5447 43.4515 22.8753 43.4172 24.577 43.3715C26.825 43.3112 27.0821 43.2379 27.5952 42.5115C27.8468 42.1554 27.8826 42.023 27.8826 41.4504C27.8826 40.8781 27.8467 40.7451 27.5952 40.388C27.4371 40.1635 27.1177 39.8795 26.8855 39.757C26.482 39.544 26.3774 39.5344 24.538 39.543C23.3499 39.5486 22.3742 39.6008 21.9899 39.6793Z" fill="#2DDAFF"/>
</svg>
