<svg width="10" height="20" viewBox="0 0 10 20" fill="none" xmlns="http://www.w3.org/2000/svg">
<path opacity="0.75" fill-rule="evenodd" clip-rule="evenodd" d="M6.5784 0.0350231C5.49597 0.209194 4.73566 0.586601 4.11192 1.25929C3.58677 1.82567 3.25909 2.49017 3.07366 3.36464C3.00362 3.69495 2.99468 3.89457 2.9802 5.45046L2.96419 7.17101H1.4821H0V8.91995V10.6689L1.47544 10.679L2.95088 10.689L2.96043 15.1779L2.96998 19.6667H4.7366H6.50322V15.1682V10.6698H7.96927C8.77559 10.6698 9.43591 10.6655 9.43666 10.6602C9.53508 9.95997 9.86982 7.21988 9.85937 7.19985C9.85114 7.18397 9.0915 7.17101 8.17132 7.17101H6.4983L6.51093 5.73882C6.52333 4.33807 6.52555 4.30162 6.61246 4.07905C6.78854 3.62816 7.15903 3.36176 7.71218 3.28832C7.86394 3.26817 8.44077 3.25114 8.99403 3.25049L10 3.2493L9.99019 1.68253L9.98038 0.115764L9.4917 0.070357C8.69045 -0.00411724 6.95262 -0.0251869 6.5784 0.0350231Z" fill="#26323C"/>
</svg>
